# xmcd
#
# Track frame offsets:
#	150
#	12209
#	24113
#	35979
#	52228
#	66565
#	79166
#	92812
#	106242
#	120713
#	132181
#	148410
#	161609
#
# Disc length: 2341 seconds
#
# Revision: 0
# Processed by: cddbd v1.5.1PL0 Copyright (c) Steve Scherf et al.
# Submitted via: dBpowerAMP V4.0
#
DISCID=ba09230d
DTITLE=Susan Anderson Bell - Susan Anderson Bell
DYEAR=2004
DGENRE=Country
TTITLE0=Many Happy Hangovers To You
TTITLE1=Nothing Takes The Place of You
TTITLE2=Walk Out Backwards
TTITLE3=Table For Two
TTITLE4=I'll Be Your San Antonio Rose
TTITLE5=How Can I Write On Paper
TTITLE6=Giving Up Easy
TTITLE7=Storms Never Last
TTITLE8=Talk Back Trembling Lips
TTITLE9=Once A Day
TTITLE10=Four In The Morning
TTITLE11=I Wish That I Could Fall In Love Today
TTITLE12=Paper Roses
EXTD=
EXTT0=
EXTT1=
EXTT2=
EXTT3=
EXTT4=
EXTT5=
EXTT6=
EXTT7=
EXTT8=
EXTT9=
EXTT10=
EXTT11=
EXTT12=
PLAYORDER=
